# xmcd
#
# Track frame offsets: 
#        150
#        1866
#        19967
#        39793
#        56165
#        80152
#        92982
#        111265
#        129855
#
# Disc length: 2051 seconds
#
# Revision: 1
# Processed by: cddbd v1.5.1PL2 Copyright (c) Steve Scherf et al.
# Submitted via: ExactAudioCopy v0.95a4
#
DISCID=6b080109
DTITLE=12:01 Blues Band - Doggone Blues, The
DYEAR=2004
DGENRE=Blues
TTITLE0=Message from Charlie
TTITLE1=Highway 49
TTITLE2=Just One Chance
TTITLE3=Nebraska Lady
TTITLE4=Midnight Blues
TTITLE5=Mr. Whiskers
TTITLE6=That's How Fine She Is
TTITLE7=Blues for Breakfast
TTITLE8=Blood from a Stone
EXTD=
EXTT0=
EXTT1=
EXTT2=
EXTT3=
EXTT4=
EXTT5=
EXTT6=
EXTT7=
EXTT8=
PLAYORDER=
